<mxfile host="app.diagrams.net" modified="2022-08-26T16:27:06.232Z" agent="5.0 (Windows NT 10.0; Win64; x64) AppleWebKit/537.36 (KHTML, like Gecko) Chrome/104.0.0.0 Safari/537.36" etag="sN5Kd45BaN9lBgbuSYsd" version="20.2.7" type="github">
  <diagram id="OeIVgRPOdDcChl_2pLRW" name="Page-1">
    <mxGraphModel dx="868" dy="393" grid="1" gridSize="10" guides="1" tooltips="1" connect="1" arrows="1" fold="1" page="1" pageScale="1" pageWidth="850" pageHeight="1100" math="0" shadow="0">
      <root>
        <mxCell id="0" />
        <mxCell id="1" parent="0" />
        <mxCell id="Fr9-sZ-vN5jVL0prdsmp-11" style="edgeStyle=orthogonalEdgeStyle;rounded=0;orthogonalLoop=1;jettySize=auto;html=1;" edge="1" parent="1" source="Fr9-sZ-vN5jVL0prdsmp-2" target="Fr9-sZ-vN5jVL0prdsmp-3">
          <mxGeometry relative="1" as="geometry" />
        </mxCell>
        <mxCell id="Fr9-sZ-vN5jVL0prdsmp-2" value="Start" style="strokeWidth=2;html=1;shape=mxgraph.flowchart.start_1;whiteSpace=wrap;" vertex="1" parent="1">
          <mxGeometry x="50" y="60" width="100" height="60" as="geometry" />
        </mxCell>
        <mxCell id="Fr9-sZ-vN5jVL0prdsmp-13" style="edgeStyle=orthogonalEdgeStyle;rounded=0;orthogonalLoop=1;jettySize=auto;html=1;" edge="1" parent="1" source="Fr9-sZ-vN5jVL0prdsmp-3" target="Fr9-sZ-vN5jVL0prdsmp-4">
          <mxGeometry relative="1" as="geometry" />
        </mxCell>
        <mxCell id="Fr9-sZ-vN5jVL0prdsmp-3" value="Dealer Outstanding &lt;br&gt;Data" style="shape=parallelogram;html=1;strokeWidth=2;perimeter=parallelogramPerimeter;whiteSpace=wrap;rounded=1;arcSize=12;size=0.23;fillColor=#dae8fc;strokeColor=#6c8ebf;" vertex="1" parent="1">
          <mxGeometry x="220" y="60" width="170" height="60" as="geometry" />
        </mxCell>
        <mxCell id="Fr9-sZ-vN5jVL0prdsmp-14" value="" style="edgeStyle=orthogonalEdgeStyle;rounded=0;orthogonalLoop=1;jettySize=auto;html=1;" edge="1" parent="1" source="Fr9-sZ-vN5jVL0prdsmp-4" target="Fr9-sZ-vN5jVL0prdsmp-7">
          <mxGeometry relative="1" as="geometry" />
        </mxCell>
        <mxCell id="Fr9-sZ-vN5jVL0prdsmp-15" value="" style="edgeStyle=orthogonalEdgeStyle;rounded=0;orthogonalLoop=1;jettySize=auto;html=1;" edge="1" parent="1" source="Fr9-sZ-vN5jVL0prdsmp-4" target="Fr9-sZ-vN5jVL0prdsmp-5">
          <mxGeometry relative="1" as="geometry" />
        </mxCell>
        <mxCell id="Fr9-sZ-vN5jVL0prdsmp-4" value="Dealer Existing" style="strokeWidth=2;html=1;shape=mxgraph.flowchart.decision;whiteSpace=wrap;" vertex="1" parent="1">
          <mxGeometry x="247.5" y="170" width="115" height="90" as="geometry" />
        </mxCell>
        <mxCell id="Fr9-sZ-vN5jVL0prdsmp-24" value="" style="edgeStyle=orthogonalEdgeStyle;rounded=0;orthogonalLoop=1;jettySize=auto;html=1;" edge="1" parent="1" source="Fr9-sZ-vN5jVL0prdsmp-5" target="Fr9-sZ-vN5jVL0prdsmp-21">
          <mxGeometry relative="1" as="geometry" />
        </mxCell>
        <mxCell id="Fr9-sZ-vN5jVL0prdsmp-5" value="Add Dealer Data in the Outstanding table" style="rounded=1;whiteSpace=wrap;html=1;absoluteArcSize=1;arcSize=14;strokeWidth=2;fillColor=#f8cecc;strokeColor=#b85450;" vertex="1" parent="1">
          <mxGeometry x="430" y="175" width="140" height="80" as="geometry" />
        </mxCell>
        <mxCell id="Fr9-sZ-vN5jVL0prdsmp-25" value="" style="edgeStyle=orthogonalEdgeStyle;rounded=0;orthogonalLoop=1;jettySize=auto;html=1;" edge="1" parent="1" source="Fr9-sZ-vN5jVL0prdsmp-7" target="Fr9-sZ-vN5jVL0prdsmp-21">
          <mxGeometry relative="1" as="geometry" />
        </mxCell>
        <mxCell id="Fr9-sZ-vN5jVL0prdsmp-7" value="Update Dealer Data in the Outstanding table" style="rounded=1;whiteSpace=wrap;html=1;absoluteArcSize=1;arcSize=14;strokeWidth=2;fillColor=#f8cecc;strokeColor=#b85450;" vertex="1" parent="1">
          <mxGeometry x="232.5" y="300" width="145" height="80" as="geometry" />
        </mxCell>
        <mxCell id="Fr9-sZ-vN5jVL0prdsmp-19" value="" style="edgeStyle=orthogonalEdgeStyle;rounded=0;orthogonalLoop=1;jettySize=auto;html=1;" edge="1" parent="1" source="Fr9-sZ-vN5jVL0prdsmp-8" target="Fr9-sZ-vN5jVL0prdsmp-3">
          <mxGeometry relative="1" as="geometry" />
        </mxCell>
        <mxCell id="Fr9-sZ-vN5jVL0prdsmp-8" value="Dealer Credit Limit" style="shape=parallelogram;html=1;strokeWidth=2;perimeter=parallelogramPerimeter;whiteSpace=wrap;rounded=1;arcSize=12;size=0.23;fillColor=#dae8fc;strokeColor=#6c8ebf;" vertex="1" parent="1">
          <mxGeometry x="425" y="60" width="150" height="60" as="geometry" />
        </mxCell>
        <mxCell id="Fr9-sZ-vN5jVL0prdsmp-10" value="Stop" style="strokeWidth=2;html=1;shape=mxgraph.flowchart.start_1;whiteSpace=wrap;" vertex="1" parent="1">
          <mxGeometry x="620" y="310" width="100" height="60" as="geometry" />
        </mxCell>
        <mxCell id="Fr9-sZ-vN5jVL0prdsmp-26" value="" style="edgeStyle=orthogonalEdgeStyle;rounded=0;orthogonalLoop=1;jettySize=auto;html=1;" edge="1" parent="1" source="Fr9-sZ-vN5jVL0prdsmp-21" target="Fr9-sZ-vN5jVL0prdsmp-10">
          <mxGeometry relative="1" as="geometry" />
        </mxCell>
        <mxCell id="Fr9-sZ-vN5jVL0prdsmp-21" value="Transfer the data to DMS System&amp;nbsp;" style="verticalLabelPosition=bottom;verticalAlign=top;html=1;shape=process;whiteSpace=wrap;rounded=1;size=0.14;arcSize=6;fillColor=#fff2cc;strokeColor=#d6b656;" vertex="1" parent="1">
          <mxGeometry x="450" y="310" width="100" height="60" as="geometry" />
        </mxCell>
      </root>
    </mxGraphModel>
  </diagram>
</mxfile>
